<svg width="65" height="63" viewBox="0 0 65 63" fill="none" xmlns="http://www.w3.org/2000/svg">
<path d="M45.9135 62.4964C46.4287 62.6921 46.9797 62.7824 47.5322 62.7618C48.0848 62.7411 48.6271 62.6098 49.1254 62.3762L62.4554 56.1259C63.142 55.8039 63.7214 55.2996 64.1268 54.6709C64.5322 54.0423 64.7473 53.3149 64.7472 52.5724V10.1925C64.7473 9.45009 64.5323 8.72271 64.1269 8.09407C63.7215 7.46543 63.1422 6.96107 62.4557 6.63902L49.1251 0.388521C48.3719 0.0354046 47.5247 -0.0808494 46.7007 0.0558482C45.8767 0.192546 45.1167 0.575435 44.5259 1.15152L19.0068 23.8378L7.89074 15.6159C7.38932 15.2451 6.77047 15.0569 6.14158 15.0842C5.51268 15.1114 4.91342 15.3523 4.44777 15.7651L0.882669 18.9253C-0.292917 19.9671 -0.294186 21.7692 0.879622 22.8128L10.5197 31.3825L0.879622 39.9519C-0.294186 40.9957 -0.292917 42.7976 0.882669 43.8397L4.44777 46.9995C4.91339 47.4124 5.51264 47.6533 6.14153 47.6806C6.77043 47.7079 7.38929 47.5198 7.89074 47.149L19.0068 38.9269L44.5259 61.6129C44.9205 61.998 45.393 62.2989 45.9135 62.4964ZM48.5703 17.0601L29.2069 31.3825L48.5703 45.7044V17.0603V17.0601Z" fill="url(#paint0_linear_26_127)" fill-opacity="0.25"/>
<defs>
<linearGradient id="paint0_linear_26_127" x1="32.3737" y1="0.00012207" x2="32.3737" y2="62.7647" gradientUnits="userSpaceOnUse">
<stop stop-color="white"/>
<stop offset="1" stop-color="white" stop-opacity="0"/>
</linearGradient>
</defs>
</svg>
